# xmcd
#
# Track frame offsets:
#	150
#	22042
#	42966
#	63433
#	84113
#	103001
#	114791
#	131006
#	145207
#	157593
#
# Disc length: 2443 seconds
# Revision: 0
# Processed by: cddbd v1.5.2PL0 Copyright (c) Steve Scherf et al.
# Submitted via: dBpowerAMP V12.0
#
DISCID=7409890a
DTITLE=Elly Wininger - Back Eddy Blues
DYEAR=2007
DGENRE=Blues
TTITLE0=Housewife from Hell
TTITLE1=The Cabin
TTITLE2=Back Eddy Blues
TTITLE3=Downtown Serenade
TTITLE4=Walkin' After Midnight
TTITLE5=Little Black Cloud
TTITLE6=Next Year
TTITLE7=I Can't Help It (If I'm White)
TTITLE8=Macroids
TTITLE9=Loser's Game
EXTD=
EXTT0=
EXTT1=
EXTT2=
EXTT3=
EXTT4=
EXTT5=
EXTT6=
EXTT7=
EXTT8=
EXTT9=
PLAYORDER=
